<?xml version="1.0" standalone="no"?>
<!DOCTYPE svg PUBLIC "-//W3C//DTD SVG 20010904//EN"
 "http://www.w3.org/TR/2001/REC-SVG-20010904/DTD/svg10.dtd">
<svg version="1.0" xmlns="http://www.w3.org/2000/svg"
 width="512.000000pt" height="512.000000pt" viewBox="0 0 512.000000 512.000000"
 preserveAspectRatio="xMidYMid meet">

<g transform="translate(0.000000,512.000000) scale(0.100000,-0.100000)"
fill="#ffffff" stroke="none">
<path d="M1895 4383 c-568 -40 -1030 -201 -1332 -465 -300 -263 -475 -631
-544 -1148 -8 -57 -13 -412 -16 -1062 l-4 -978 1035 0 1036 0 0 1045 0 1045
-392 2 -393 3 3 65 c6 109 30 201 78 298 76 155 210 271 406 350 83 33 249 77
336 88 44 6 52 10 51 28 0 11 -35 181 -78 376 l-77 355 -30 1 c-16 0 -51 -1
-79 -3z"/>
<path d="M4800 4379 c-253 -21 -548 -81 -737 -149 -252 -92 -446 -211 -614
-379 -256 -257 -398 -564 -464 -1003 -27 -179 -34 -441 -35 -1290 l0 -828
1035 0 1035 0 0 1045 0 1045 -391 0 -392 0 6 88 c19 267 158 471 406 596 83
42 245 92 364 112 87 15 107 22 104 34 -2 8 -39 178 -83 378 l-78 362 -31 -1
c-16 -1 -73 -5 -125 -10z"/>
</g>
</svg>
